<?xml version="1.0" standalone="no"?>
<!DOCTYPE svg PUBLIC "-//W3C//DTD SVG 20010904//EN"
 "http://www.w3.org/TR/2001/REC-SVG-20010904/DTD/svg10.dtd">
<svg version="1.0" xmlns="http://www.w3.org/2000/svg"
 width="512.000000pt" height="512.000000pt" viewBox="0 0 512.000000 512.000000"
 preserveAspectRatio="xMidYMid meet">
<metadata>
Created by potrace 1.11, written by Peter Selinger 2001-2013
</metadata>
<g transform="translate(0.000000,512.000000) scale(0.100000,-0.100000)"
fill="#000000" stroke="none">
<path d="M1180 5109 c-391 -28 -613 -114 -827 -322 -224 -217 -313 -443 -343
-867 -13 -194 -13 -2526 0 -2720 30 -424 119 -650 343 -867 219 -212 431 -293
847 -323 190 -13 2514 -13 2715 0 248 17 414 51 552 115 222 102 412 289 518
509 72 150 107 309 125 571 13 199 13 2513 0 2710 -29 418 -110 632 -323 852
-217 224 -443 313 -867 343 -173 12 -2568 11 -2740 -1z m2023 -800 c36 -19 57
-52 57 -93 0 -21 -14 -104 -30 -184 -17 -80 -29 -146 -28 -146 2 -1 47 -19
100 -40 118 -45 287 -145 385 -226 75 -62 93 -98 79 -153 -3 -12 -61 -80 -128
-150 -118 -122 -125 -127 -163 -127 -34 0 -54 10 -120 61 -318 244 -801 301
-999 119 -81 -75 -96 -182 -40 -277 48 -83 149 -137 454 -248 235 -85 442
-185 548 -265 201 -151 293 -348 279 -595 -8 -129 -28 -208 -82 -320 -136
-281 -420 -453 -828 -504 -43 -5 -80 -11 -82 -13 -3 -2 -18 -69 -34 -148 -27
-132 -33 -148 -61 -173 l-31 -28 -234 3 c-230 3 -234 3 -259 27 -40 37 -40 68
-6 232 18 83 30 151 28 153 -1 1 -41 15 -88 30 -176 58 -437 216 -529 321 -35
40 -41 87 -17 133 21 39 237 249 270 261 43 17 75 3 156 -67 87 -74 197 -142
290 -177 300 -114 643 -92 784 50 68 67 94 153 75 243 -9 45 -20 64 -58 101
-59 59 -126 93 -341 175 -295 113 -394 155 -484 209 -215 129 -330 268 -383
467 -25 95 -22 290 5 393 88 328 389 550 806 598 55 6 106 13 111 14 6 2 24
67 40 145 29 144 46 183 89 200 32 13 443 12 469 -1z"/>
</g>
</svg>
